# xmcd CD database file
#
# Track frame offsets:
#	150
#	21335
#	41215
#	57682
#	82355
#	103407
#	124327
#	140702
#	157882
#	171757
#	183912
#	200007
#	227315
#
# Disc length: 3266 seconds
#
# Revision: 0
# Processed by: cddbd v1.5.1PL0 Copyright (c) Steve Scherf et al.
# Submitted via: CDex 1.51
#
DISCID=c20cc00d
DTITLE=The Siegel-Schwall Band - Flash Forward
DYEAR=2005
DGENRE=Blues
TTITLE0=Afraid Of Love
TTITLE1=Deja Vous
TTITLE2=Going Back To Alabama
TTITLE3=The Underqualified Blues
TTITLE4=Krazy
TTITLE5=Can't Stop
TTITLE6=On The Road
TTITLE7=Twisted
TTITLE8=Rumors Of Long Tall Sally
TTITLE9=Hey Leviticus
TTITLE10=Sweet Liz
TTITLE11=Pauline
TTITLE12=Stormy Weather Love
EXTD=YEAR: 2005
EXTT0=
EXTT1=
EXTT2=
EXTT3=
EXTT4=
EXTT5=
EXTT6=
EXTT7=
EXTT8=
EXTT9=
EXTT10=
EXTT11=
EXTT12=
PLAYORDER=
